<svg width="31" height="31" viewBox="0 0 31 31" fill="none" xmlns="http://www.w3.org/2000/svg">
<g id="air-conditioner 1" clip-path="url(#clip0_1_232)">
<g id="Group">
<path id="Vector" d="M28.8212 6.09705H7.37082C7.1195 6.09705 6.91575 6.30074 6.91575 6.55212C6.91575 6.8035 7.1195 7.00719 7.37082 7.00719H28.8212C29.5208 7.00719 30.0899 7.57633 30.0899 8.27593V17.9654C30.0899 18.665 29.5208 19.2341 28.8212 19.2341H27.7315V16.269C27.7315 16.0177 27.5277 15.814 27.2764 15.814H3.72357C3.47225 15.814 3.2685 16.0177 3.2685 16.269V19.2341H2.17888C1.47928 19.2341 0.910142 18.665 0.910142 17.9654V8.27593C0.910142 7.57633 1.47928 7.00719 2.17888 7.00719H5.55053C5.80185 7.00719 6.00561 6.8035 6.00561 6.55212C6.00561 6.30074 5.80185 6.09705 5.55053 6.09705H2.17888C0.977432 6.09705 0 7.07448 0 8.27593V17.9654C0 19.1668 0.977432 20.1442 2.17888 20.1442H6.91593C7.16725 20.1442 7.371 19.9406 7.371 19.6892C7.371 19.4379 7.16725 19.2341 6.91593 19.2341H4.17865V18.4341H22.2638C22.5152 18.4341 22.7189 18.2305 22.7189 17.9791C22.7189 17.7277 22.5152 17.524 22.2638 17.524H4.17865V16.7241H26.8214V17.524H24.0841C23.8328 17.524 23.6291 17.7277 23.6291 17.9791C23.6291 18.2305 23.8328 18.4341 24.0841 18.4341H26.8214V19.2341H8.73615C8.48483 19.2341 8.28108 19.4379 8.28108 19.6892C8.28108 19.9406 8.48483 20.1442 8.73615 20.1442H28.8212C30.0226 20.1442 31.0001 19.1668 31.0001 17.9654V8.27593C31 7.07454 30.0226 6.09705 28.8212 6.09705Z" fill="#00E5A1"/>
<path id="Vector_2" d="M27.2764 9.79711C27.5277 9.79711 27.7315 9.59342 27.7315 9.34203C27.7315 9.09065 27.5277 8.88696 27.2764 8.88696H25.9306C25.6792 8.88696 25.4755 9.09065 25.4755 9.34203C25.4755 9.59342 25.6792 9.79711 25.9306 9.79711H27.2764Z" fill="#00E5A1"/>
<path id="Vector_3" d="M23.8542 9.79711C24.1055 9.79711 24.3093 9.59342 24.3093 9.34203C24.3093 9.09065 24.1055 8.88696 23.8542 8.88696H15.2408C14.9895 8.88696 14.7858 9.09065 14.7858 9.34203C14.7858 9.59342 14.9895 9.79711 15.2408 9.79711H23.8542Z" fill="#00E5A1"/>
<path id="Vector_4" d="M8.56031 21.3618C8.30899 21.3618 8.10524 21.5655 8.10524 21.8169C8.10524 21.8304 8.09061 23.1795 6.82819 24.0768C6.62334 24.2223 6.57529 24.5065 6.72091 24.7113C6.80968 24.8363 6.94984 24.9028 7.09225 24.9028C7.18344 24.9028 7.27555 24.8755 7.35552 24.8186C8.99657 23.6522 9.01544 21.8912 9.01544 21.8168C9.01538 21.5655 8.81163 21.3618 8.56031 21.3618Z" fill="#00E5A1"/>
<path id="Vector_5" d="M11.8187 21.3618C11.5674 21.3618 11.3636 21.5655 11.3636 21.8169V24.4477C11.3636 24.6991 11.5674 24.9028 11.8187 24.9028C12.07 24.9028 12.2738 24.6991 12.2738 24.4477V21.8169C12.2738 21.5655 12.07 21.3618 11.8187 21.3618Z" fill="#00E5A1"/>
<path id="Vector_6" d="M15.628 21.3618C15.3767 21.3618 15.1729 21.5655 15.1729 21.8169V24.4477C15.1729 24.6991 15.3767 24.9028 15.628 24.9028C15.8793 24.9028 16.0831 24.6991 16.0831 24.4477V21.8169C16.0831 21.5655 15.8793 21.3618 15.628 21.3618Z" fill="#00E5A1"/>
<path id="Vector_7" d="M24.1719 24.0768C22.9264 23.1916 22.8955 21.8754 22.8948 21.8148C22.8937 21.5644 22.6904 21.3618 22.4398 21.3618C22.1884 21.3618 21.9847 21.5655 21.9847 21.8169C21.9847 21.8913 22.0036 23.6522 23.6446 24.8187C23.7246 24.8755 23.8167 24.9029 23.9079 24.9029C24.0502 24.9028 24.1904 24.8362 24.2792 24.7114C24.4248 24.5065 24.3767 24.2223 24.1719 24.0768Z" fill="#00E5A1"/>
<path id="Vector_8" d="M19.1813 21.3618C18.93 21.3618 18.7263 21.5655 18.7263 21.8169V24.4477C18.7263 24.6991 18.93 24.9028 19.1813 24.9028C19.4326 24.9028 19.6364 24.6991 19.6364 24.4477V21.8169C19.6364 21.5655 19.4326 21.3618 19.1813 21.3618Z" fill="#00E5A1"/>
</g>
</g>
<defs>
<clipPath id="clip0_1_232">
<rect width="31" height="31" fill="white"/>
</clipPath>
</defs>
</svg>
