<svg width="28" height="28" viewBox="0 0 28 28" fill="none" xmlns="http://www.w3.org/2000/svg">
<g id="call (1) 1" clip-path="url(#clip0_1_132)">
<path id="Vector" d="M27.5132 19.4935L20.3617 16.3041C20.0479 16.1641 19.6805 16.235 19.4406 16.4815C18.9655 16.9702 17.8439 18.1162 17.1576 18.7915C15.7923 17.8313 14.3335 16.5689 12.9045 15.1089C12.9007 15.105 12.8969 15.1012 12.893 15.0973C11.4577 13.687 10.2437 12.2767 9.27744 10.8972C10.1054 10.0597 11.5636 8.61767 11.5818 8.59969C11.8247 8.35954 11.8939 7.99374 11.7553 7.68103L8.58679 0.530556C8.42359 0.161978 8.01727 -0.0336559 7.62805 0.0692979L2.12363 1.52242C0.453095 1.94836 -0.362305 3.70093 0.153595 5.37859C1.74573 10.5571 4.03748 14.9719 8.5116 19.516C8.51309 19.5175 8.51459 19.519 8.51608 19.5205L8.54471 19.5492C8.54621 19.5507 8.5477 19.5522 8.5492 19.5537C14.4608 25.3974 19.7939 27.0438 22.659 27.9282C24.3167 28.4398 26.0778 27.6434 26.5076 25.9554L27.9722 20.4563C28.0761 20.0659 27.8814 19.6577 27.5132 19.4935ZM24.9211 25.5363C24.9202 25.5398 24.9193 25.5432 24.9185 25.5466C24.7252 26.312 23.9044 26.5926 23.142 26.3572C20.2196 25.455 15.3287 23.9454 9.70362 18.3859L9.67734 18.3593C4.12827 12.7228 2.50281 7.43574 1.72137 4.89464C1.48639 4.12987 1.76709 3.30817 2.53037 3.11489C2.53293 3.11425 2.53549 3.1136 2.53806 3.11275L7.37085 1.83728L10.026 7.82914C9.34686 8.50252 8.01749 9.82401 7.62592 10.2388C7.36444 10.5158 7.32749 10.9368 7.53684 11.2555C8.61905 12.9032 10.0328 14.5888 11.7386 16.2654C13.436 17.9991 15.1845 19.4743 16.795 20.5314C17.1059 20.7354 17.5147 20.7046 17.7916 20.4565C18.2242 20.0687 19.5437 18.726 20.216 18.0383L26.2064 20.7101L24.9211 25.5363Z" fill="white"/>
<path id="Vector_2" d="M14.0002 1.67118C20.815 1.67118 26.3594 7.20179 26.3594 13.9997C26.3594 14.4535 26.7266 14.8217 27.1795 14.8217C27.6326 14.8217 27.9998 14.4535 27.9998 13.9997C27.9998 6.29532 21.7197 0.0273438 14.0002 0.0273438C13.5471 0.0273438 13.1799 0.39528 13.1799 0.849262C13.1799 1.30324 13.5471 1.67118 14.0002 1.67118Z" fill="white"/>
<path id="Vector_3" d="M14.0002 4.95902C18.9755 4.95902 23.0234 9.01467 23.0234 13.9999C23.0234 14.4537 23.3907 14.8218 23.8438 14.8218C24.2966 14.8218 24.6641 14.4537 24.6641 13.9999C24.6641 8.10821 19.8802 3.31519 14.0002 3.31519C13.5471 3.31519 13.1799 3.68312 13.1799 4.1371C13.1799 4.59087 13.5471 4.95902 14.0002 4.95902Z" fill="white"/>
<path id="Vector_4" d="M14.0002 8.24637C17.1663 8.24637 19.7422 10.8273 19.7422 13.9998C19.7422 14.4536 20.1094 14.8217 20.5625 14.8217C21.0156 14.8217 21.3828 14.4536 21.3828 13.9998C21.3828 9.92103 18.071 6.60254 14.0002 6.60254C13.5471 6.60254 13.1799 6.97069 13.1799 7.42446C13.1799 7.87844 13.5471 8.24637 14.0002 8.24637Z" fill="white"/>
</g>
<defs>
<clipPath id="clip0_1_132">
<rect width="28" height="28" fill="white"/>
</clipPath>
</defs>
</svg>
