<svg width="27" height="27" viewBox="0 0 27 27" fill="none" xmlns="http://www.w3.org/2000/svg">
<g id="call 1" clip-path="url(#clip0_1_202)">
<g id="Group">
<g id="Group_2">
<g id="Group_3">
<path id="Vector" d="M26.2915 20.8292L20.8266 17.1847C20.1331 16.726 19.2035 16.8769 18.6908 17.5316L17.0989 19.5784C16.8943 19.8481 16.5224 19.9264 16.2265 19.762L15.9237 19.595C14.9199 19.0479 13.6709 18.3667 11.1544 15.8493C8.63791 13.332 7.95537 12.082 7.40822 11.0801L7.24219 10.7772C7.07552 10.4813 7.15229 10.1079 7.42214 9.90167L9.46751 8.31028C10.122 7.79751 10.2731 6.86815 9.81487 6.17443L6.17041 0.709536C5.70078 0.00310536 4.75855 -0.208961 4.03151 0.22809L1.74629 1.60083C1.02826 2.02295 0.501465 2.70661 0.276376 3.50852C-0.546528 6.50687 0.0725344 11.6816 7.69532 19.3052C13.7591 25.3685 18.2733 26.9991 21.376 26.9991C22.0901 27.0022 22.8014 26.9093 23.4907 26.7229C24.2928 26.498 24.9766 25.9712 25.3984 25.253L26.7725 22.9691C27.2102 22.2419 26.9982 21.2991 26.2915 20.8292ZM25.9972 22.5074L24.6263 24.7927C24.3234 25.3111 23.8316 25.6922 23.254 25.8563C20.486 26.6162 15.6501 25.9868 8.33194 18.6686C1.01376 11.3504 0.38436 6.51499 1.14431 3.74658C1.3086 3.16828 1.69024 2.67587 2.20928 2.37248L4.4945 1.00154C4.80996 0.81172 5.21891 0.903727 5.4227 1.21028L7.40242 4.18253L9.06405 6.6747C9.26304 6.97561 9.19766 7.37892 8.91378 7.60158L6.86793 9.19297C6.24534 9.66904 6.06754 10.5304 6.45087 11.2141L6.61332 11.5093C7.18835 12.5639 7.90327 13.8759 10.5133 16.4855C13.1234 19.0951 14.435 19.8101 15.4891 20.3851L15.7847 20.548C16.4683 20.9312 17.3298 20.7535 17.8058 20.1309L19.3972 18.085C19.62 17.8013 20.0231 17.736 20.3241 17.9348L25.7885 21.5792C26.0953 21.7829 26.1873 22.192 25.9972 22.5074Z" fill="#00E5A1"/>
<path id="Vector_2" d="M15.2992 4.50225C19.5216 4.50694 22.9433 7.92874 22.948 12.1511C22.948 12.3996 23.1495 12.601 23.398 12.601C23.6465 12.601 23.8479 12.3996 23.8479 12.1511C23.8427 7.43195 20.0183 3.60758 15.2992 3.60242C15.0507 3.60242 14.8492 3.80383 14.8492 4.05233C14.8492 4.30083 15.0507 4.50225 15.2992 4.50225Z" fill="#00E5A1"/>
<path id="Vector_3" d="M15.2992 7.20196C18.0312 7.20517 20.2452 9.41916 20.2484 12.1512C20.2484 12.3997 20.4499 12.6012 20.6984 12.6012C20.9469 12.6012 21.1483 12.3997 21.1483 12.1512C21.1445 8.92237 18.528 6.30581 15.2992 6.30212C15.0507 6.30212 14.8492 6.50354 14.8492 6.75204C14.8492 7.00054 15.0507 7.20196 15.2992 7.20196Z" fill="#00E5A1"/>
<path id="Vector_4" d="M15.2992 9.90154C16.541 9.90302 17.5473 10.9094 17.5488 12.1512C17.5488 12.3997 17.7503 12.6011 17.9988 12.6011C18.2472 12.6011 18.4487 12.3997 18.4487 12.1512C18.4467 10.4126 17.0378 9.00366 15.2992 9.00171C15.0507 9.00171 14.8492 9.20312 14.8492 9.45162C14.8492 9.70013 15.0507 9.90154 15.2992 9.90154Z" fill="#00E5A1"/>
</g>
</g>
</g>
</g>
<defs>
<clipPath id="clip0_1_202">
<rect width="27" height="27" fill="white"/>
</clipPath>
</defs>
</svg>
