<svg width="31" height="31" viewBox="0 0 31 31" fill="none" xmlns="http://www.w3.org/2000/svg">
<g id="car-parking 1">
<g id="Group">
<path id="Vector" d="M29.3909 19.4031L26.9676 13.887C26.7012 12.911 25.716 12.153 24.7031 12.153H11.1406C10.1283 12.153 9.14258 12.9115 8.87617 13.887L6.45284 19.4031C5.54028 19.5595 4.84375 20.3558 4.84375 21.3125V26.6406V29.5469C4.84375 30.348 5.49572 31 6.29688 31H9.20312C10.0043 31 10.6562 30.348 10.6562 29.5469V28.5781H25.1875V29.5469C25.1875 30.348 25.8395 31 26.6406 31H29.5469C30.348 31 31 30.348 31 29.5469V26.6406V21.3125C31 20.3558 30.3035 19.5595 29.3909 19.4031ZM9.77856 14.2416C9.78922 14.2164 9.79842 14.1907 9.8052 14.1641C9.94422 13.6085 10.5681 13.1217 11.1406 13.1217H24.7031C25.2761 13.1217 25.9 13.609 26.0385 14.1641C26.0453 14.1907 26.054 14.2164 26.0652 14.2416L28.3204 19.375H7.52331L9.77856 14.2416ZM5.8125 21.3125C5.8125 20.7782 6.24698 20.3437 6.78125 20.3437H29.0625C29.5968 20.3437 30.0312 20.7782 30.0312 21.3125V26.6406C30.0312 27.1749 29.5968 27.6094 29.0625 27.6094H23.5493L22.7148 25.9397C22.6324 25.7755 22.4648 25.6719 22.2812 25.6719H13.5625C13.3789 25.6719 13.2113 25.7755 13.129 25.9397L12.2944 27.6094H6.78125C6.24698 27.6094 5.8125 27.1749 5.8125 26.6406V21.3125ZM9.6875 29.5469C9.6875 29.8142 9.47002 30.0312 9.20312 30.0312H6.29688C6.02998 30.0312 5.8125 29.8142 5.8125 29.5469V28.3083C6.09877 28.4754 6.42669 28.5781 6.78125 28.5781H9.6875V29.5469ZM13.3775 27.6094L13.8618 26.6406H21.9819L22.4663 27.6094H13.3775ZM29.5469 30.0312H26.6406C26.3737 30.0312 26.1562 29.8142 26.1562 29.5469V28.5781H29.0625C29.4171 28.5781 29.745 28.4754 30.0312 28.3083V29.5469C30.0312 29.8142 29.8138 30.0312 29.5469 30.0312Z" fill="#00E5A1"/>
<path id="Vector_2" d="M24.7031 24.7031H27.6094C28.4105 24.7031 29.0625 24.0512 29.0625 23.25V22.2812C29.0625 22.0134 28.8455 21.7969 28.5781 21.7969H25.6719C24.8707 21.7969 24.2188 22.4488 24.2188 23.25V24.2188C24.2188 24.4866 24.4358 24.7031 24.7031 24.7031ZM25.1875 23.25C25.1875 22.9826 25.405 22.7656 25.6719 22.7656H28.0938V23.25C28.0938 23.5174 27.8763 23.7344 27.6094 23.7344H25.1875V23.25Z" fill="#00E5A1"/>
<path id="Vector_3" d="M8.23438 24.7031H11.1406C11.408 24.7031 11.625 24.4866 11.625 24.2188V23.25C11.625 22.4488 10.973 21.7969 10.1719 21.7969H7.26562C6.99825 21.7969 6.78125 22.0134 6.78125 22.2812V23.25C6.78125 24.0512 7.43322 24.7031 8.23438 24.7031ZM7.75 22.7656H10.1719C10.4388 22.7656 10.6562 22.9826 10.6562 23.25V23.7344H8.23438C7.96748 23.7344 7.75 23.5174 7.75 23.25V22.7656Z" fill="#00E5A1"/>
<path id="Vector_4" d="M13.5625 24.7031H22.2812C22.5486 24.7031 22.7656 24.4866 22.7656 24.2188C22.7656 23.9509 22.5486 23.7344 22.2812 23.7344H13.5625C13.2951 23.7344 13.0781 23.9509 13.0781 24.2188C13.0781 24.4866 13.2951 24.7031 13.5625 24.7031Z" fill="#00E5A1"/>
<path id="Vector_5" d="M24.7031 26.6406H26.6406C26.908 26.6406 27.125 26.4241 27.125 26.1562C27.125 25.8884 26.908 25.6719 26.6406 25.6719H24.7031C24.4358 25.6719 24.2188 25.8884 24.2188 26.1562C24.2188 26.4241 24.4358 26.6406 24.7031 26.6406Z" fill="#00E5A1"/>
<path id="Vector_6" d="M11.1406 25.6719H9.20312C8.93575 25.6719 8.71875 25.8884 8.71875 26.1562C8.71875 26.4241 8.93575 26.6406 9.20312 26.6406H11.1406C11.408 26.6406 11.625 26.4241 11.625 26.1562C11.625 25.8884 11.408 25.6719 11.1406 25.6719Z" fill="#00E5A1"/>
</g>
</g>
</svg>
