<svg width="13" height="14" viewBox="0 0 13 14" fill="none" xmlns="http://www.w3.org/2000/svg">
<g id="envelope 1" clip-path="url(#clip0_1_111)">
<path id="Vector" d="M11.7812 1.78906H1.21876C0.546694 1.78906 0 2.36992 0 3.08399V10.8535C0 11.5676 0.546694 12.1485 1.21876 12.1485H11.7812C12.4533 12.1485 13 11.5676 13 10.8535V3.08399C13 2.36992 12.4533 1.78906 11.7812 1.78906ZM11.7812 2.65234C11.8364 2.65234 11.8889 2.66451 11.937 2.68576L6.5 7.69251L1.06302 2.68576C1.11103 2.66454 1.16354 2.65234 1.21873 2.65234H11.7812ZM11.7812 11.2851H1.21876C0.99461 11.2851 0.812497 11.0917 0.812497 10.8535V3.59782L6.23379 8.58993C6.31037 8.66031 6.40518 8.69531 6.5 8.69531C6.59482 8.69531 6.68963 8.66034 6.76621 8.58993L12.1875 3.59782V10.8535C12.1875 11.0917 12.0054 11.2851 11.7812 11.2851Z" fill="#00E5A1"/>
</g>
<defs>
<clipPath id="clip0_1_111">
<rect width="13" height="13.8125" fill="white" transform="translate(0 0.0625)"/>
</clipPath>
</defs>
</svg>
