<svg width="27" height="27" viewBox="0 0 27 27" fill="none" xmlns="http://www.w3.org/2000/svg">
<g id="facebook 2">
<g id="_x30_1._Facebook">
<path id="Icon_11_" d="M10.908 14.9036C10.827 14.9036 9.04497 14.9036 8.23497 14.9036C7.80297 14.9036 7.66797 14.7416 7.66797 14.3366C7.66797 13.2566 7.66797 12.1496 7.66797 11.0696C7.66797 10.6376 7.82997 10.5026 8.23497 10.5026H10.908C10.908 10.4216 10.908 8.85556 10.908 8.12656C10.908 7.04656 11.097 6.02056 11.637 5.07556C12.204 4.10356 13.014 3.45556 14.04 3.07756C14.715 2.83456 15.39 2.72656 16.119 2.72656H18.765C19.143 2.72656 19.305 2.88856 19.305 3.26656V6.34456C19.305 6.72256 19.143 6.88456 18.765 6.88456C18.036 6.88456 17.307 6.88456 16.578 6.91156C15.849 6.91156 15.471 7.26256 15.471 8.01856C15.444 8.82856 15.471 9.61156 15.471 10.4486H18.603C19.035 10.4486 19.197 10.6106 19.197 11.0426V14.3096C19.197 14.7416 19.062 14.8766 18.603 14.8766C17.631 14.8766 15.552 14.8766 15.471 14.8766V23.6786C15.471 24.1376 15.336 24.2996 14.85 24.2996C13.716 24.2996 12.609 24.2996 11.475 24.2996C11.07 24.2996 10.908 24.1376 10.908 23.7326C10.908 20.8976 10.908 14.9846 10.908 14.9036Z" fill="#7D7D7D"/>
</g>
</g>
</svg>
