<svg width="42" height="42" viewBox="0 0 42 42" fill="none" xmlns="http://www.w3.org/2000/svg">
<g id="location (1) 1" clip-path="url(#clip0_1_166)">
<g id="Group">
<path id="Vector" d="M19.7455 41.0047C19.9711 41.3431 20.3509 41.5463 20.7576 41.5463C21.1642 41.5463 21.544 41.3431 21.7696 41.0047C24.648 36.6872 28.8876 31.355 31.842 25.932C34.2043 21.596 35.3527 17.8978 35.3527 14.6264C35.3527 6.57863 28.8053 0.03125 20.7576 0.03125C12.7098 0.03125 6.16241 6.57863 6.16241 14.6264C6.16241 17.8978 7.31081 21.596 9.67311 25.932C12.6253 31.3509 16.8731 36.6961 19.7455 41.0047ZM20.7576 2.46377C27.464 2.46377 32.9202 7.91993 32.9202 14.6264C32.9202 17.4809 31.8688 20.7984 29.7059 24.7683C27.1593 29.4427 23.5253 34.1845 20.7576 38.1707C17.9902 34.185 14.356 29.443 11.8092 24.7683C9.64636 20.7984 8.59494 17.4809 8.59494 14.6264C8.59494 7.91993 14.0511 2.46377 20.7576 2.46377Z" fill="#0EA57A"/>
<path id="Vector_2" d="M20.7574 21.9238C24.7812 21.9238 28.0549 18.6501 28.0549 14.6262C28.0549 10.6023 24.7812 7.32861 20.7574 7.32861C16.7335 7.32861 13.4598 10.6023 13.4598 14.6262C13.4598 18.6501 16.7335 21.9238 20.7574 21.9238ZM20.7574 9.76114C23.4399 9.76114 25.6224 11.9436 25.6224 14.6262C25.6224 17.3088 23.4399 19.4912 20.7574 19.4912C18.0748 19.4912 15.8923 17.3088 15.8923 14.6262C15.8923 11.9436 18.0748 9.76114 20.7574 9.76114Z" fill="#0EA57A"/>
</g>
</g>
<defs>
<clipPath id="clip0_1_166">
<rect width="41.5151" height="41.5151" fill="white" transform="translate(0 0.03125)"/>
</clipPath>
</defs>
</svg>
