<svg width="31" height="31" viewBox="0 0 31 31" fill="none" xmlns="http://www.w3.org/2000/svg">
<g id="massage 1" clip-path="url(#clip0_1_249)">
<g id="Group">
<g id="Group_2">
<path id="Vector" d="M24.489 30.5172L24.3447 28.2332C24.2891 27.3555 23.9739 26.5257 23.4332 25.8334C23.2787 25.6357 22.9934 25.6005 22.7957 25.7551C22.5981 25.9095 22.5631 26.1948 22.7175 26.3925C23.1451 26.9399 23.3943 27.5963 23.4383 28.2904L23.552 30.0917H7.44804L7.56169 28.2907C7.62006 27.3702 8.03413 26.5287 8.72758 25.9212C9.13875 25.5612 9.63656 25.3018 10.1674 25.1709L12.6198 24.5647C12.9459 24.484 13.1737 24.1934 13.1737 23.8581V22.1082C13.9603 22.4238 14.7664 22.5944 15.5 22.5944C16.2238 22.5944 17.0202 22.4277 17.7985 22.1193V23.8508C17.7985 24.1866 18.026 24.4774 18.352 24.5581L20.8333 25.171C21.0439 25.2228 21.2516 25.2956 21.4506 25.3875C21.5122 25.416 21.5769 25.4294 21.6407 25.4294C21.8123 25.4294 21.9765 25.3316 22.0533 25.1656C22.1584 24.9379 22.0591 24.6681 21.8313 24.563C21.5798 24.4468 21.3169 24.3546 21.0505 24.2892L18.7068 23.7102V21.689C20.051 20.943 21.1617 19.819 21.8527 18.4981C21.9689 18.2759 21.883 18.0015 21.6608 17.8853C21.4385 17.7689 21.1642 17.8549 21.0479 18.0772C20.4015 19.3129 19.3356 20.3553 18.0464 21.0123C17.1941 21.447 16.2899 21.6863 15.5001 21.6863C14.7006 21.6863 13.7872 21.4422 12.9274 20.9986C11.6793 20.3566 10.6374 19.3466 9.99367 18.1548C9.87451 17.9341 9.59909 17.8519 9.37833 17.9711C9.15764 18.0904 9.07542 18.3658 9.19463 18.5865C9.8816 19.8583 10.9659 20.9458 12.2656 21.6735V23.7168L9.94983 24.2891C9.27891 24.4546 8.64935 24.7826 8.12937 25.238C7.25266 26.006 6.72923 27.0697 6.65542 28.2333L6.51132 30.5173C6.50339 30.6424 6.54765 30.7653 6.63345 30.8567C6.71924 30.9481 6.83906 31 6.96452 31H24.0358C24.1612 31 24.281 30.9481 24.3669 30.8567C24.4527 30.7652 24.4969 30.6424 24.489 30.5172Z" fill="#00E5A1"/>
</g>
</g>
<g id="Group_3">
<g id="Group_4">
<path id="Vector_2" d="M28.8666 7.11328C28.6158 7.11328 28.4125 7.31654 28.4125 7.56738V16.8811C28.4125 20.0664 25.0424 21.6824 23.0334 22.3622C21.9654 22.7237 21.42 22.5318 21.314 22.3145C21.2509 22.1852 21.332 22.0126 21.5112 21.8947C22.2848 21.3861 25.4098 19.0071 25.4098 17.5098C25.4098 16.8335 25.3454 16.1845 25.2913 15.7592C25.2605 15.5167 25.1147 15.3008 24.9012 15.1817C24.6875 15.0623 24.4269 15.0518 24.204 15.153L21.7792 16.2549C21.6051 16.3341 21.403 16.2908 21.2766 16.1474C21.1976 16.0578 21.1599 15.9429 21.1704 15.824C21.1808 15.705 21.238 15.5985 21.3315 15.524C21.7641 15.1794 22.1267 14.9069 22.4309 14.6903C22.4344 14.6877 22.4381 14.6853 22.4415 14.6827C23.162 14.1707 23.549 13.978 23.738 13.9058C23.747 13.9028 23.7559 13.8997 23.7646 13.896C23.8515 13.8649 23.8888 13.8625 23.8939 13.8624H25.3809C25.6317 13.8624 25.835 13.6591 25.835 13.4083V7.82561C25.835 7.57477 25.6317 7.37151 25.3809 7.37151C25.1301 7.37151 24.9268 7.57477 24.9268 7.82561V12.9541H24.2031C24.3276 12.4215 24.437 11.7386 24.4055 11.0566C24.3611 10.091 24.0361 9.35823 23.4614 8.91854C23.4124 7.31448 22.9928 6.01236 22.2125 5.04525C21.6563 4.3558 20.9335 3.85211 20.0622 3.54393C19.7804 2.08778 18.6234 0.792561 17.1 0.263503C15.7873 -0.192293 13.0848 -0.449253 9.73313 2.95214C9.55712 3.13076 9.55924 3.41823 9.73785 3.59424C9.91647 3.77031 10.204 3.76819 10.38 3.58952C13.3811 0.543896 15.6917 0.73601 16.8018 1.12145C17.1183 1.23134 17.4033 1.37684 17.6574 1.54679C17.3663 1.53753 17.0706 1.56253 16.7799 1.62357C15.8491 1.81937 14.9492 2.33626 14.0287 3.2039C13.8463 3.37591 13.8377 3.66333 14.0097 3.84587C14.0991 3.94063 14.2195 3.98846 14.3403 3.98846C14.452 3.98846 14.5639 3.94747 14.6516 3.86483C15.447 3.11513 16.2044 2.67272 16.9667 2.51233C17.6219 2.37477 18.3021 2.47655 18.8102 2.7834C19.0329 3.17459 19.1643 3.57753 19.2041 3.93924C19.2189 4.07062 19.2227 4.19941 19.2154 4.3225C19.2055 4.49088 19.1752 4.66168 19.1246 4.83466C18.9654 5.37886 18.6046 5.94539 18.046 6.53034C17.5953 7.0023 17.0673 7.43381 16.5407 7.8152C16.5406 7.81532 16.5405 7.81544 16.5403 7.81556C15.4656 8.5948 14.0875 9.3807 12.4441 10.1515C10.8603 10.8951 9.48259 12.2638 8.79399 13.7399C8.16019 13.3101 7.76379 13.1155 7.5078 13.0272C7.26579 10.782 7.40692 7.66359 9.2533 4.95739C9.39461 4.75026 9.34127 4.46775 9.13414 4.32637C8.92695 4.185 8.64444 4.2384 8.50312 4.44559C6.54928 7.30921 6.35432 10.5666 6.58718 12.954H6.07326V7.82555C6.07326 7.57471 5.86995 7.37145 5.61916 7.37145C5.36838 7.37145 5.16506 7.57471 5.16506 7.82555V13.4082C5.16506 13.6591 5.36838 13.8623 5.61916 13.8623H7.10577C7.12235 13.8627 7.46323 13.8848 8.7246 14.8021C8.72939 14.8057 8.73423 14.8093 8.73914 14.8127C9.00639 15.0074 9.31372 15.2411 9.66865 15.524C9.76207 15.5984 9.81935 15.7049 9.82982 15.8238C9.8403 15.9428 9.80258 16.0576 9.72356 16.1473C9.59714 16.2907 9.39504 16.3339 9.22097 16.2548L6.79619 15.1529C6.57326 15.0517 6.31266 15.0623 6.09887 15.1816C5.88539 15.3007 5.73953 15.5166 5.70877 15.7591C5.6547 16.1843 5.59028 16.8333 5.59028 17.5096C5.59028 19.007 8.71528 21.386 9.48889 21.8946C9.6681 22.0124 9.74918 22.1851 9.68609 22.3143C9.58007 22.5315 9.03466 22.7234 7.96662 22.362C5.95774 21.6823 2.58764 20.0663 2.58764 16.881V7.5675C2.58764 7.31666 2.38433 7.1134 2.13354 7.1134C1.88276 7.1134 1.67944 7.31666 1.67944 7.5675V16.8812C1.67944 18.5144 2.39759 19.951 3.81408 21.151C5.0565 22.2037 6.59972 22.8585 7.67551 23.2226C8.19276 23.3976 8.63633 23.4716 9.01038 23.4716C9.81614 23.4715 10.2996 23.1283 10.5023 22.7129C10.7675 22.1695 10.5512 21.5063 9.98791 21.1359C9.44099 20.7763 8.5452 20.0735 7.77674 19.3143C6.83433 18.383 6.49854 17.7716 6.49854 17.5099C6.49854 16.9704 6.54304 16.4463 6.58773 16.056L8.84527 17.0819C9.38553 17.3273 10.0124 17.1933 10.405 16.748C10.6501 16.4699 10.7671 16.1135 10.7346 15.7443C10.7021 15.3752 10.5246 15.0447 10.2347 14.8137C9.98579 14.6154 9.75808 14.4394 9.54737 14.2812C10.1149 12.9484 11.3957 11.6474 12.8301 10.974C14.4278 10.2247 15.7878 9.45741 16.8772 8.69119C19.9545 9.82626 21.0592 12.1454 21.6382 14.1432C21.3783 14.3346 21.0893 14.5557 20.7654 14.8137C20.4755 15.0447 20.2979 15.3752 20.2655 15.7444C20.233 16.1136 20.3501 16.4699 20.5952 16.748C20.9876 17.1933 21.6144 17.3273 22.1548 17.0819L24.4123 16.0561C24.457 16.4463 24.5015 16.9705 24.5015 17.5099C24.5015 17.7716 24.1657 18.3832 23.2233 19.3144C22.4549 20.0736 21.5591 20.7764 21.0121 21.136C20.4488 21.5063 20.2325 22.1696 20.4977 22.713C20.7004 23.1284 21.1837 23.4717 21.9896 23.4717C22.3637 23.4717 22.8074 23.3977 23.3245 23.2227C24.4003 22.8586 25.9436 22.2038 27.186 21.1512C28.6025 19.9512 29.3206 18.5145 29.3206 16.8813V7.56756C29.3207 7.3166 29.1174 7.11328 28.8666 7.11328ZM17.7237 8.05236C18.8181 7.1596 19.9486 5.94152 20.1081 4.53944C21.7387 5.27877 22.3345 6.80976 22.5024 8.24932L22.3263 8.12532C22.1212 7.98092 21.8379 8.03008 21.6935 8.23509C21.5491 8.44016 21.5982 8.7234 21.8032 8.86786L22.7503 9.53503C22.7555 9.53866 22.761 9.54108 22.7662 9.54447C22.7725 9.54847 22.7782 9.55307 22.7847 9.55677C23.7145 10.0936 23.6077 11.7781 23.2164 13.1413C23.0145 13.2363 22.7554 13.3804 22.4221 13.5967C21.825 11.6871 20.652 9.33934 17.7237 8.05236Z" fill="#00E5A1"/>
</g>
</g>
</g>
<defs>
<clipPath id="clip0_1_249">
<rect width="31" height="31" fill="white"/>
</clipPath>
</defs>
</svg>
