<svg width="33" height="33" viewBox="0 0 33 33" fill="none" xmlns="http://www.w3.org/2000/svg">
<g id="board-meeting 1">
<path id="Vector" d="M30.0487 25.3076V18.4891C30.0506 18.4472 30.044 18.4054 30.0293 18.3662C30.0146 18.3269 29.9921 18.2911 29.9632 18.2608C29.9342 18.2305 29.8994 18.2064 29.8609 18.1899C29.8224 18.1734 29.7809 18.1649 29.739 18.1649C29.6971 18.1649 29.6556 18.1734 29.6171 18.1899C29.5786 18.2064 29.5438 18.2305 29.5148 18.2608C29.4859 18.2911 29.4634 18.3269 29.4487 18.3662C29.434 18.4054 29.4274 18.4472 29.4293 18.4891V25.3211C29.4293 25.3327 29.4602 26.4942 28.6514 27.3005C28.1132 27.8367 27.3191 28.0971 26.2885 28.0791L25.9849 27.0375C28.2923 26.9234 28.458 25.354 28.4593 25.3372C28.4606 25.3205 28.4593 25.3218 28.4593 25.314L28.5366 19.3399C28.5437 19.2232 28.5688 18.4311 28.0126 17.8052C27.8483 17.622 27.6517 17.4705 27.4325 17.3586C27.9638 17.0766 28.3865 16.6262 28.6342 16.0781C28.882 15.53 28.9408 14.9152 28.8014 14.3301C28.662 13.745 28.3324 13.2227 27.8642 12.8451C27.3959 12.4676 26.8156 12.2561 26.2143 12.244C25.6129 12.2318 25.0245 12.4196 24.5414 12.7779C24.0582 13.1362 23.7077 13.6447 23.5448 14.2237C23.3818 14.8027 23.4157 15.4194 23.6411 15.9771C23.8664 16.5347 24.2705 17.0018 24.79 17.3051C24.5919 17.3981 24.4103 17.5228 24.2524 17.6744C23.8992 18.0282 23.6804 18.4941 23.6337 18.9918L21.4693 11.5546C21.4505 11.4903 21.4114 11.4338 21.3579 11.3936C21.3043 11.3534 21.2392 11.3316 21.1722 11.3316H20.0333C19.9756 10.6826 19.7407 10.0621 19.3543 9.53759C18.9678 9.01313 18.4446 8.60497 17.8419 8.35769C18.3632 8.06174 18.7719 7.60161 19.0043 7.04906C19.2367 6.4965 19.2798 5.88258 19.1267 5.303C18.9737 4.72343 18.6331 4.21079 18.1582 3.84501C17.6833 3.47924 17.1007 3.28088 16.5013 3.28088C15.9019 3.28088 15.3193 3.47924 14.8444 3.84501C14.3694 4.21079 14.0289 4.72343 13.8759 5.303C13.7228 5.88258 13.7659 6.4965 13.9983 7.04906C14.2307 7.60161 14.6394 8.06174 15.1607 8.35769C14.5579 8.60497 14.0348 9.01313 13.6483 9.53759C13.2618 10.0621 13.0269 10.6826 12.9693 11.3316H11.8278C11.7608 11.3316 11.6957 11.3534 11.6421 11.3936C11.5886 11.4338 11.5495 11.4903 11.5307 11.5546L9.36117 18.9937C9.33668 18.7424 9.22776 18.1455 8.74242 17.6763C8.58456 17.5247 8.40299 17.4 8.20489 17.307C8.72377 17.0038 9.12735 16.537 9.35234 15.9797C9.57734 15.4225 9.61102 14.8063 9.44811 14.2278C9.28519 13.6494 8.9349 13.1413 8.45216 12.7834C7.96941 12.4255 7.38152 12.2379 6.78068 12.25C6.17984 12.2622 5.60002 12.4734 5.13216 12.8506C4.6643 13.2278 4.33486 13.7496 4.19549 14.3342C4.05612 14.9188 4.11471 15.5331 4.36207 16.0808C4.60944 16.6285 5.03158 17.0786 5.56231 17.3605C5.34304 17.4723 5.14637 17.6238 4.98223 17.8072C4.426 18.433 4.45114 19.2251 4.45823 19.3418L4.53557 25.3159V25.3392C4.53557 25.3392 4.70186 26.926 7.00992 27.0394L6.70635 28.081C5.67961 28.0997 4.88619 27.8399 4.34801 27.3076C3.54492 26.5064 3.57006 25.334 3.57071 25.323V18.491C3.57262 18.4491 3.56602 18.4073 3.55132 18.3681C3.53662 18.3289 3.51411 18.293 3.48517 18.2627C3.45622 18.2324 3.42143 18.2083 3.38291 18.1918C3.34438 18.1753 3.30291 18.1669 3.26101 18.1669C3.21911 18.1669 3.17764 18.1753 3.13911 18.1918C3.10058 18.2083 3.0658 18.2324 3.03685 18.2627C3.0079 18.293 2.9854 18.3289 2.9707 18.3681C2.956 18.4073 2.9494 18.4491 2.95131 18.491V25.3076C2.95131 25.4249 2.93649 26.7694 3.91102 27.7407C4.5375 28.3652 5.41793 28.6868 6.53039 28.701L6.34992 29.3204C6.33656 29.3666 6.33409 29.4152 6.34272 29.4625C6.35134 29.5098 6.37082 29.5544 6.39962 29.5929C6.42842 29.6314 6.46575 29.6627 6.50869 29.6843C6.55162 29.7059 6.59899 29.7173 6.64705 29.7175H26.353C26.401 29.7173 26.4484 29.7059 26.4913 29.6843C26.5343 29.6627 26.5716 29.6314 26.6004 29.5929C26.6292 29.5544 26.6487 29.5098 26.6573 29.4625C26.6659 29.4152 26.6634 29.3666 26.6501 29.3204L26.4696 28.701C27.5821 28.6868 28.4631 28.3652 29.089 27.7407C30.0635 26.7694 30.0519 25.4249 30.0487 25.3076ZM24.0674 14.9635C24.0673 14.5489 24.1901 14.1436 24.4204 13.7988C24.6506 13.4541 24.9779 13.1853 25.3609 13.0266C25.7439 12.8678 26.1653 12.8262 26.572 12.907C26.9786 12.9878 27.3521 13.1874 27.6453 13.4805C27.9385 13.7736 28.1382 14.1471 28.2192 14.5537C28.3001 14.9603 28.2586 15.3818 28.1 15.7648C27.9414 16.1478 27.6727 16.4752 27.328 16.7056C26.9833 16.9359 26.578 17.0589 26.1635 17.0589C25.6078 17.0583 25.0751 16.8374 24.6821 16.4446C24.2892 16.0518 24.0681 15.5191 24.0674 14.9635ZM24.6933 18.1165C25.0201 17.8052 25.5099 17.6583 26.1525 17.6808C26.7796 17.7027 27.2482 17.8819 27.5466 18.2139C27.9604 18.6747 27.9198 19.2992 27.9192 19.3038C27.9185 19.3083 27.9192 19.3179 27.9192 19.3257L27.8438 25.2908C27.8263 25.4075 27.6259 26.3936 25.8083 26.4258L24.8634 23.1845C24.9859 23.0793 25.0895 22.954 25.1696 22.8139C25.6105 22.0404 26.148 21.1136 26.1531 21.1046C26.1749 21.0694 26.1894 21.0302 26.1957 20.9893C26.2021 20.9484 26.2002 20.9066 26.1902 20.8664C26.1801 20.8263 26.1621 20.7885 26.1373 20.7554C26.1124 20.7224 26.0812 20.6946 26.0454 20.6737C26.0097 20.6529 25.9701 20.6395 25.929 20.6342C25.888 20.6289 25.8463 20.6318 25.8064 20.6429C25.7665 20.654 25.7293 20.673 25.6968 20.6987C25.6644 20.7244 25.6374 20.7563 25.6175 20.7926C25.6124 20.8023 25.0736 21.7285 24.6308 22.5077C24.2872 23.1123 23.2366 23.0459 23.227 23.0446H23.2102L20.2331 22.9834C20.1777 22.9757 19.8496 22.9041 19.8593 22.3576C19.8625 22.17 19.9089 22.0353 19.9966 21.9521C20.085 21.8794 20.1967 21.841 20.3111 21.8439H20.3234C20.3549 21.8439 21.1148 21.8742 22.5367 21.7504C24.217 21.6041 24.2531 19.2174 24.2537 19.1156C24.2511 19.1098 24.2627 18.5277 24.6933 18.1165ZM14.4046 5.99935C14.4044 5.58487 14.5271 5.17962 14.7571 4.83487C14.9872 4.49012 15.3144 4.22135 15.6972 4.06256C16.0801 3.90377 16.5015 3.86209 16.908 3.94279C17.3145 4.0235 17.688 4.22296 17.9812 4.51595C18.2744 4.80894 18.4741 5.1823 18.555 5.5888C18.636 5.99529 18.5946 6.41667 18.436 6.79962C18.2774 7.18258 18.0089 7.50991 17.6643 7.74021C17.3197 7.97051 16.9145 8.09343 16.5 8.09343C15.9444 8.09292 15.4118 7.87199 15.0189 7.47914C14.6261 7.0863 14.4051 6.55363 14.4046 5.99806V5.99935ZM16.5 8.71347C17.2227 8.71424 17.9197 8.98191 18.4571 9.46511C18.9946 9.94831 19.3346 10.613 19.412 11.3316H13.588C13.6654 10.613 14.0054 9.94831 14.5429 9.46511C15.0803 8.98191 15.7773 8.71424 16.5 8.71347ZM4.74117 14.9654C4.74105 14.5508 4.86388 14.1455 5.09415 13.8007C5.32441 13.4559 5.65176 13.1872 6.03478 13.0284C6.4178 12.8697 6.8393 12.8281 7.24594 12.909C7.65259 12.9899 8.02612 13.1895 8.3193 13.4827C8.61247 13.7758 8.81211 14.1494 8.89296 14.556C8.97382 14.9627 8.93225 15.3842 8.77353 15.7672C8.61481 16.1502 8.34606 16.4776 8.00127 16.7078C7.65649 16.9381 7.25115 17.0609 6.83655 17.0608C6.28064 17.0603 5.74768 16.8391 5.35478 16.4458C4.96187 16.0526 4.74117 15.5194 4.74117 14.9635V14.9654ZM5.15625 25.2921L5.07891 19.3257C5.07891 19.3192 5.07891 19.3115 5.07891 19.305C5.07891 19.2986 5.03766 18.6747 5.45145 18.2139C5.74922 17.8819 6.21844 17.7027 6.84557 17.6808C7.4901 17.6576 7.97801 17.8052 8.30479 18.1165C8.73533 18.5277 8.74694 19.1098 8.74694 19.1156C8.74694 19.2174 8.78367 21.6041 10.464 21.7504C11.8858 21.8742 12.6457 21.8451 12.6773 21.8439H12.6857C12.8014 21.8403 12.9145 21.8787 13.0041 21.9521C13.0917 22.0334 13.1381 22.17 13.1413 22.3576C13.1504 22.8796 12.861 22.9686 12.7662 22.9834L9.79043 23.0446H9.77432C9.76594 23.0446 9.09434 23.0878 8.64961 22.7965L8.6393 22.79C8.52853 22.7184 8.43622 22.6217 8.36988 22.5077C7.92709 21.7285 7.38826 20.8023 7.38311 20.7926C7.36321 20.7563 7.33625 20.7244 7.30381 20.6987C7.27138 20.673 7.23412 20.654 7.19424 20.6429C7.15436 20.6318 7.11266 20.6289 7.07161 20.6342C7.03056 20.6395 6.99098 20.6529 6.95521 20.6737C6.91945 20.6946 6.88821 20.7224 6.86336 20.7554C6.8385 20.7885 6.82052 20.8263 6.81048 20.8664C6.80044 20.9066 6.79855 20.9484 6.8049 20.9893C6.81126 21.0302 6.82575 21.0694 6.8475 21.1046C6.85266 21.1136 7.3902 22.0372 7.83106 22.8139C7.91098 22.9541 8.01455 23.0795 8.13721 23.1845L7.19362 26.4258C5.36315 26.3955 5.17365 25.3946 5.15625 25.2921ZM7.05762 29.0948L8.68957 23.4997C9.04928 23.6243 9.42951 23.679 9.80977 23.6608L12.7939 23.5996H12.8152C13.1491 23.5693 13.7762 23.2676 13.7601 22.3447C13.7537 21.9773 13.6383 21.6892 13.4166 21.4881C13.204 21.3044 12.9288 21.2097 12.6483 21.2238C12.5916 21.2238 11.8465 21.2477 10.5168 21.1317C10.0528 21.0917 9.77561 20.7404 9.61061 20.3421L12.0598 11.9497H20.9395L23.3888 20.3421C23.2231 20.7404 22.9466 21.0917 22.4825 21.1317C21.1529 21.2477 20.4072 21.2258 20.3511 21.2238C20.0705 21.2097 19.7953 21.3043 19.5828 21.4881C19.3611 21.6892 19.2457 21.9773 19.2393 22.3447C19.2231 23.2676 19.8503 23.5693 20.1841 23.5996H20.2054L23.1896 23.6608C23.5699 23.679 23.9501 23.6243 24.3098 23.4997L25.9417 29.0948H7.05762Z" fill="#00E5A1"/>
</g>
</svg>
