<svg width="16" height="16" viewBox="0 0 16 16" fill="none" xmlns="http://www.w3.org/2000/svg">
<g id="smartphone 1">
<g id="Group">
<g id="Group_2">
<path id="Vector" d="M10.8091 0H5.19092C4.08183 0 3.19092 0.890909 3.19092 2V14C3.19092 15.1091 4.10001 16 5.19092 16H10.8091C11.9182 16 12.8091 15.1091 12.8091 14V2C12.8091 0.890909 11.9182 0 10.8091 0ZM8.0091 14.7091C7.50001 14.7091 7.10001 14.3091 7.10001 13.8C7.10001 13.2909 7.50001 12.8909 8.0091 12.8909C8.51819 12.8909 8.91819 13.2909 8.91819 13.8C8.91819 14.3091 8.51819 14.7091 8.0091 14.7091ZM11.9 11.9273H4.10001V2.67273H11.9V11.9273Z" fill="#00E5A1"/>
</g>
</g>
</g>
</svg>
