<svg width="33" height="33" viewBox="0 0 33 33" fill="none" xmlns="http://www.w3.org/2000/svg">
<g id="search-interface-symbol 2">
<g clip-path="url(#clip0_1_152)">
<g id="Group">
<g id="_x34__4_">
<g id="Group_2">
<path id="Vector" d="M32.6874 31.2047L24.1674 22.8207C26.3985 20.3967 27.7694 17.1908 27.7694 13.6631C27.7683 6.11671 21.5525 0 13.8844 0C6.21631 0 0.000549316 6.11671 0.000549316 13.6631C0.000549316 21.2095 6.21631 27.3263 13.8844 27.3263C17.1976 27.3263 20.2363 26.1803 22.6232 24.2751L31.1764 32.6921C31.5931 33.1026 32.2697 33.1026 32.6865 32.6921C33.1042 32.2816 33.1042 31.6152 32.6874 31.2047ZM13.8844 25.2241C7.39636 25.2241 2.13678 20.0481 2.13678 13.6631C2.13678 7.27816 7.39636 2.10215 13.8844 2.10215C20.3725 2.10215 25.6321 7.27816 25.6321 13.6631C25.6321 20.0481 20.3725 25.2241 13.8844 25.2241Z" fill="white"/>
</g>
</g>
</g>
</g>
</g>
<defs>
<clipPath id="clip0_1_152">
<rect width="33" height="33" rx="6" fill="white"/>
</clipPath>
</defs>
</svg>
