<svg width="30" height="30" viewBox="0 0 30 30" fill="none" xmlns="http://www.w3.org/2000/svg">
<g id="security 1" clip-path="url(#clip0_1_210)">
<path id="Vector" d="M26.3602 6.07417L15.0849 0.066105C14.9176 -0.0231702 14.7171 -0.0219173 14.5511 0.0692375L3.5878 6.07731C3.40799 6.17598 3.29648 6.36455 3.29648 6.56973V14.4178C3.30306 20.8691 7.12529 26.7055 13.0363 29.2901L14.558 29.9533C14.7002 30.0153 14.8622 30.0156 15.0047 29.9539L16.7194 29.2134C22.74 26.6849 26.6568 20.7921 26.6575 14.2621V6.56973C26.6575 6.36236 26.5431 6.17159 26.3602 6.07417ZM25.5348 14.2621C25.5335 20.3419 21.8858 25.8278 16.2799 28.1806L16.2762 28.1825L14.7829 28.8272L13.4854 28.2611C7.98327 25.8554 4.42511 20.4231 4.41884 14.4178V6.90209L14.8246 1.19912L25.5348 6.90616V14.2621Z" fill="#00E5A1"/>
<path id="Vector_2" d="M10.6831 14.0538C10.4817 13.818 10.1274 13.7901 9.89157 13.9915C9.6557 14.1926 9.62782 14.5472 9.82924 14.7828L12.7944 18.2551C12.9924 18.4869 13.3392 18.5185 13.5754 18.3262L20.4812 12.7078C20.7218 12.5123 20.7581 12.1587 20.5623 11.9181C20.3669 11.6779 20.0132 11.6412 19.7726 11.837L13.2922 17.1089L10.6831 14.0538Z" fill="#00E5A1"/>
</g>
<defs>
<clipPath id="clip0_1_210">
<rect width="30" height="30" fill="white"/>
</clipPath>
</defs>
</svg>
