<svg width="30" height="30" viewBox="0 0 30 30" fill="none" xmlns="http://www.w3.org/2000/svg">
<g id="swimming 1">
<g id="Swimming">
<path id="Vector" d="M1.875 20.5409C2.07906 20.5395 2.2829 20.5545 2.48456 20.5857C2.50081 20.5904 2.51725 20.5925 2.53381 20.5959C2.96489 20.6827 3.37515 20.852 3.74206 21.0944C4.48374 21.5864 5.35804 21.8401 6.24788 21.8214C7.12854 21.8423 7.99456 21.5936 8.72988 21.1085C8.73813 21.1042 8.74606 21.0999 8.75425 21.095C9.30257 20.7184 9.95576 20.5245 10.6208 20.5409C11.2874 20.5259 11.942 20.7194 12.4933 21.0944C13.2326 21.5869 14.1052 21.8406 14.9933 21.8214C15.8831 21.8383 16.7571 21.5851 17.5 21.095C18.0483 20.7185 18.7015 20.5245 19.3664 20.5409C20.0371 20.5265 20.6954 20.7222 21.2494 21.1005C21.9893 21.5881 22.8598 21.8395 23.7457 21.8214C24.3427 21.8345 24.9359 21.7239 25.488 21.4964C25.751 21.3802 26.0058 21.2462 26.2505 21.0953C26.8048 20.725 27.4585 20.5317 28.125 20.5409C28.2908 20.5409 28.4497 20.475 28.5669 20.3578C28.6842 20.2406 28.75 20.0816 28.75 19.9159C28.75 19.7501 28.6842 19.5911 28.5669 19.4739C28.4497 19.3567 28.2908 19.2909 28.125 19.2909C27.882 19.2879 27.6392 19.3051 27.399 19.3421C26.7638 19.4368 26.1565 19.6673 25.6183 20.0177C25.4196 20.1408 25.2128 20.2505 24.9996 20.3461C24.6021 20.5083 24.175 20.585 23.7459 20.5711C23.0733 20.5881 22.4127 20.3912 21.859 20.009C21.3346 19.6704 20.7454 19.4448 20.129 19.3465L14.979 11.8255L21.5781 8.52235C21.8684 8.37734 22.1233 8.17038 22.3248 7.91608C22.5264 7.66179 22.6696 7.36635 22.7445 7.05064C22.8194 6.73492 22.8241 6.40661 22.7582 6.08889C22.6923 5.77117 22.5575 5.47178 22.3633 5.21185C22.0518 4.80991 21.6136 4.52505 21.1199 4.4035C20.6261 4.28196 20.1057 4.33087 19.6432 4.54229L10.5255 8.8581C10.2086 9.00825 9.92623 9.22224 9.69596 9.48666C9.4657 9.75109 9.29256 10.0602 9.1874 10.3947C9.08225 10.7292 9.04734 11.0818 9.08487 11.4304C9.1224 11.7791 9.23156 12.1162 9.4055 12.4206L10.6174 14.5757L2.53325 19.334C2.31498 19.3056 2.09511 19.2912 1.875 19.2909C1.70924 19.2909 1.55027 19.3567 1.43306 19.4739C1.31585 19.5911 1.25 19.7501 1.25 19.9159C1.25 20.0816 1.31585 20.2406 1.43306 20.3578C1.55027 20.475 1.70924 20.5409 1.875 20.5409ZM11.2546 15.6507C11.5408 15.4817 11.7489 15.2067 11.8337 14.8853C11.9186 14.5639 11.8733 14.222 11.7078 13.9338L10.4901 11.7994C10.4018 11.6445 10.3464 11.473 10.3275 11.2957C10.3085 11.1184 10.3264 10.9391 10.38 10.769C10.4336 10.5989 10.5217 10.4418 10.6388 10.3074C10.756 10.1729 10.8997 10.0642 11.0608 9.98785L20.1767 5.67329C20.3409 5.59393 20.5243 5.56297 20.7055 5.58404C20.8866 5.60511 21.0581 5.67733 21.1997 5.79226C21.3413 5.90718 21.4473 6.06006 21.5052 6.23301C21.5631 6.40596 21.5705 6.59182 21.5267 6.76885C21.4949 6.90572 21.4329 7.03375 21.3452 7.14357C21.2576 7.2534 21.1465 7.34224 21.0201 7.4036L14.4238 10.7056C14.2618 10.7849 14.1187 10.8981 14.0043 11.0375C13.8899 11.1769 13.8068 11.3394 13.7607 11.5137C13.7143 11.69 13.7063 11.8743 13.7374 12.054C13.7684 12.2336 13.8378 12.4045 13.9408 12.555L18.6106 19.3459C17.9881 19.4441 17.3936 19.673 16.8661 20.0177C16.3161 20.3954 15.6606 20.5892 14.9936 20.5714C14.3231 20.5874 13.6648 20.3906 13.1131 20.0092C12.3741 19.5233 11.5051 19.2729 10.6208 19.2909C9.73794 19.2716 8.8703 19.5224 8.13387 20.0096C8.12438 20.0145 8.11462 20.02 8.10519 20.0255C7.55941 20.3993 6.90912 20.5903 6.24788 20.5712C5.58037 20.5872 4.92472 20.3929 4.37375 20.0157C4.28625 19.9644 4.19531 19.9122 4.10225 19.8603L11.2546 15.6507Z" fill="#00E5A1"/>
<path id="Vector_2" d="M28.125 23.1324C27.2358 23.1142 26.3622 23.3674 25.6204 23.8581C25.0626 24.2202 24.4118 24.4129 23.7468 24.4129C23.0818 24.4129 22.431 24.2202 21.8732 23.8581C21.124 23.3841 20.2556 23.1324 19.3691 23.1324C18.4825 23.1324 17.6141 23.3841 16.8649 23.8581C16.3146 24.2348 15.6597 24.4289 14.993 24.4129C14.3269 24.4289 13.6728 24.2348 13.1232 23.8581C12.3826 23.3674 11.5099 23.1142 10.6216 23.1324C9.73295 23.1142 8.85984 23.3674 8.11875 23.8581C7.56876 24.2348 6.91419 24.4289 6.24775 24.4129C5.5814 24.4289 4.92691 24.2348 4.377 23.8581C3.63619 23.3675 2.76339 23.1143 1.875 23.1324C1.70924 23.1324 1.55027 23.1982 1.43306 23.3154C1.31585 23.4327 1.25 23.5916 1.25 23.7574C1.25 23.9231 1.31585 24.0821 1.43306 24.1993C1.55027 24.3165 1.70924 24.3824 1.875 24.3824C2.54128 24.3666 3.19566 24.5608 3.74544 24.9375C4.48638 25.4283 5.35934 25.6814 6.24788 25.6633C7.13651 25.6814 8.00957 25.4283 8.75063 24.9375C9.30061 24.5608 9.95519 24.3667 10.6216 24.3827C11.2877 24.3668 11.9419 24.5609 12.4914 24.9375C13.232 25.4283 14.1047 25.6815 14.993 25.6633C15.8819 25.6815 16.7553 25.4283 17.4966 24.9375C18.0541 24.5754 18.7046 24.3827 19.3693 24.3827C20.0341 24.3827 20.6846 24.5754 21.2421 24.9375C21.9915 25.4116 22.86 25.6633 23.7468 25.6633C24.6335 25.6633 25.5021 25.4116 26.2515 24.9375C26.8024 24.5607 27.4578 24.3665 28.125 24.3824C28.2908 24.3824 28.4497 24.3165 28.5669 24.1993C28.6842 24.0821 28.75 23.9231 28.75 23.7574C28.75 23.5916 28.6842 23.4327 28.5669 23.3154C28.4497 23.1982 28.2908 23.1324 28.125 23.1324Z" fill="#00E5A1"/>
<path id="Vector_3" d="M19.1769 14.1541C19.177 15.0375 19.439 15.901 19.9298 16.6355C20.4206 17.37 21.1182 17.9424 21.9343 18.2805C22.7505 18.6185 23.6485 18.7069 24.5149 18.5345C25.3813 18.3621 26.1771 17.9367 26.8018 17.3121C27.4264 16.6874 27.8517 15.8915 28.024 15.0251C28.1963 14.1587 28.1078 13.2607 27.7698 12.4445C27.4317 11.6284 26.8592 10.9309 26.1246 10.4401C25.3901 9.94938 24.5266 9.68746 23.6432 9.6875C22.459 9.68876 21.3237 10.1598 20.4863 10.9972C19.649 11.8345 19.1781 12.9699 19.1769 14.1541ZM23.6432 10.9375C24.2793 10.9375 24.9011 11.1261 25.43 11.4795C25.9589 11.8329 26.3711 12.3352 26.6146 12.9229C26.858 13.5105 26.9217 14.1572 26.7977 14.7811C26.6736 15.405 26.3673 15.9781 25.9175 16.4279C25.4678 16.8777 24.8947 17.184 24.2708 17.3082C23.647 17.4323 23.0003 17.3686 22.4126 17.1253C21.8249 16.8819 21.3226 16.4697 20.9691 15.9408C20.6157 15.412 20.427 14.7902 20.4269 14.1541C20.4279 13.3013 20.767 12.4838 21.37 11.8808C21.9729 11.2778 22.7905 10.9385 23.6432 10.9375Z" fill="#00E5A1"/>
</g>
</g>
</svg>
