<svg width="160" height="150" viewBox="0 0 160 150" fill="none" xmlns="http://www.w3.org/2000/svg">
<g id="Vector">
<path d="M37.0449 148.396C36.2989 147.873 35.748 147.272 35.3922 146.591C35.0249 145.913 34.8781 145.198 34.9515 144.447C35.0136 143.698 35.2936 142.967 35.7917 142.252C36.2898 141.538 36.8767 141.027 37.5524 140.718C38.2214 140.405 38.9368 140.304 39.6988 140.417C40.4493 140.532 41.1976 140.85 41.9436 141.373L44.2322 142.977L39.3335 150L37.0449 148.396ZM41.2881 142.313C40.4681 141.738 39.6846 141.52 38.9376 141.659C38.1906 141.797 37.5352 142.271 36.9713 143.079C36.4027 143.894 36.1771 144.684 36.2945 145.448C36.4118 146.212 36.8805 146.882 37.7005 147.456L38.8397 148.255L42.4274 143.111L41.2881 142.313Z" fill="white"/>
<path d="M20.8657 134.582L27.2293 128.86L28.1658 129.906L21.8022 135.629L20.8657 134.582Z" fill="white"/>
<path d="M19.2075 118.016C19.4919 118.516 19.6623 119.015 19.7189 119.512C19.7683 120.014 19.6977 120.471 19.5071 120.882C19.3165 121.294 19.0075 121.622 18.5801 121.866L17.8366 120.56C18.141 120.348 18.3335 120.072 18.4141 119.733C18.4907 119.386 18.4132 119.01 18.1817 118.603C17.942 118.181 17.6554 117.91 17.3218 117.788C16.9812 117.671 16.6506 117.703 16.33 117.887C16.0806 118.029 15.9203 118.22 15.8488 118.46C15.7734 118.692 15.7559 118.943 15.7963 119.214C15.8327 119.477 15.9107 119.83 16.0303 120.272C16.1784 120.831 16.2756 121.301 16.3221 121.681C16.3573 122.058 16.297 122.433 16.141 122.806C15.9851 123.179 15.6756 123.498 15.2125 123.763C14.7851 124.007 14.3501 124.114 13.9077 124.083C13.4652 124.052 13.0488 123.893 12.6585 123.605C12.2681 123.317 11.9287 122.919 11.6403 122.412C11.23 121.691 11.0765 120.998 11.1798 120.334C11.2719 119.666 11.6172 119.128 12.2157 118.72L12.9835 120.069C12.725 120.245 12.5666 120.506 12.5083 120.852C12.45 121.197 12.5306 121.563 12.7499 121.949C12.949 122.298 13.2006 122.533 13.5046 122.653C13.8086 122.772 14.1281 122.736 14.4629 122.545C14.6909 122.415 14.841 122.239 14.9135 122.018C14.9747 121.793 14.9871 121.55 14.9507 121.287C14.9143 121.024 14.8404 120.678 14.7289 120.25C14.5839 119.68 14.4918 119.202 14.4524 118.818C14.409 118.426 14.4689 118.042 14.632 117.665C14.7839 117.285 15.0949 116.96 15.5651 116.692C15.9426 116.476 16.3578 116.376 16.8104 116.391C17.259 116.4 17.6983 116.542 18.1283 116.816C18.5471 117.088 18.9069 117.488 19.2075 118.016Z" fill="white"/>
<path d="M7.99768 104.912C7.18351 105.104 6.40893 105.089 5.67394 104.865C4.93706 104.634 4.31281 104.237 3.80119 103.674C3.2797 103.104 2.92769 102.432 2.74515 101.656C2.53627 100.768 2.57041 99.9277 2.84759 99.1359C3.1149 98.3379 3.61096 97.6887 4.33578 97.188L4.7225 98.8322C4.33429 99.1519 4.0776 99.5293 3.95241 99.9642C3.82722 100.399 3.82391 100.869 3.94246 101.373C4.07231 101.925 4.31177 102.388 4.66083 102.761C5.00989 103.135 5.44507 103.391 5.96637 103.529C6.48578 103.66 7.0528 103.653 7.66742 103.507C8.28204 103.362 8.7926 103.115 9.19911 102.765C9.60373 102.408 9.88294 101.983 10.0367 101.491C10.1826 101 10.1906 100.479 10.0607 99.9269C9.94216 99.4229 9.72996 99.0043 9.42411 98.6712C9.11827 98.3381 8.72044 98.1154 8.23061 98.0032L7.8439 96.359C8.71549 96.4824 9.44867 96.8412 10.0434 97.4354C10.6363 98.0216 11.0372 98.7588 11.2461 99.6468C11.4305 100.431 11.4193 101.189 11.2125 101.922C10.9978 102.657 10.6123 103.293 10.0561 103.83C9.49799 104.359 8.81185 104.719 7.99768 104.912Z" fill="white"/>
<path d="M8.73139 77.4397C8.66149 78.2339 8.4132 78.9505 7.9865 79.5895C7.55236 80.2195 6.98714 80.7018 6.29085 81.0363C5.58712 81.3619 4.81862 81.4879 3.98536 81.4143C3.15211 81.3406 2.42156 81.0821 1.79372 80.6387C1.1666 80.1872 0.698417 79.6136 0.389166 78.9178C0.0724666 78.2132 -0.0509377 77.4637 0.0189531 76.6695C0.0895644 75.867 0.341942 75.1508 0.776087 74.5207C1.20278 73.8818 1.76392 73.3992 2.45948 73.0728C3.15505 72.7465 3.91946 72.6201 4.75272 72.6938C5.58598 72.7675 6.32061 73.0263 6.95662 73.4704C7.58446 73.9137 8.05673 74.4877 8.37343 75.1924C8.68268 75.8881 8.802 76.6372 8.73139 77.4397ZM7.51826 77.3324C7.56798 76.7674 7.48567 76.2527 7.27133 75.7881C7.04883 75.3228 6.71147 74.9464 6.25928 74.6589C5.79963 74.3625 5.2553 74.1864 4.62627 74.1308C3.99724 74.0752 3.43465 74.1534 2.93851 74.3653C2.44308 74.5691 2.04929 74.8809 1.75713 75.3006C1.46498 75.7204 1.29405 76.2128 1.24433 76.7778C1.19461 77.3428 1.27692 77.8575 1.49126 78.3221C1.7056 78.7866 2.0385 79.1668 2.48998 79.4625C2.94218 79.75 3.48279 79.9216 4.11182 79.9772C4.74084 80.0328 5.30715 79.9591 5.81075 79.7561C6.3069 79.5441 6.70514 79.2286 7.00546 78.8096C7.29761 78.3898 7.46854 77.8974 7.51826 77.3324Z" fill="white"/>
<path d="M6.93931 48.026L13.5681 54.3224L12.9368 55.822L3.80694 55.4669L4.39037 54.081L11.9264 54.5114L6.36544 49.3892L6.93931 48.026Z" fill="white"/>
<path d="M16.4567 33.672L18.4242 35.2333L20.2567 32.9131L21.1537 33.6249L19.3212 35.945L21.3756 37.5752L23.4371 34.965L24.3341 35.6767L21.4021 39.389L14.6893 34.0623L17.6213 30.3501L18.5182 31.0618L16.4567 33.672Z" fill="white"/>
<path d="M36.7709 23.4505L33.1515 21.8757L32.2925 22.5154L34.332 25.2669L33.2064 26.1052L28.1075 19.2266L30.4773 17.4618C31.0039 17.0696 31.5167 16.831 32.0157 16.7462C32.5213 16.6564 32.9779 16.7003 33.3855 16.8781C33.7997 17.0509 34.1487 17.3287 34.4323 17.7114C34.7649 18.1601 34.9365 18.6672 34.9471 19.2328C34.9594 19.7869 34.7445 20.3309 34.3026 20.8649L38.1138 22.4504L36.7709 23.4505ZM31.6249 21.6148L32.869 20.6882C33.2903 20.3745 33.528 20.0336 33.5822 19.6656C33.6429 19.2927 33.5412 18.9281 33.2771 18.5718C33.013 18.2155 32.7022 18.0168 32.3448 17.9757C31.9826 17.9281 31.5875 18.0635 31.1596 18.3822L29.9155 19.3088L31.6249 21.6148Z" fill="white"/>
<path d="M64.9962 10.3249C64.2124 10.4614 63.4577 10.4051 62.732 10.1561C62.0129 9.89752 61.4026 9.47402 60.9011 8.88557C60.4062 8.28762 60.0872 7.57561 59.944 6.74955C59.8008 5.92348 59.8622 5.14939 60.1282 4.42726C60.4023 3.70372 60.835 3.10273 61.4263 2.62431C62.0243 2.13638 62.7151 1.82417 63.4989 1.68767C64.2907 1.54976 65.0461 1.61008 65.7652 1.86864C66.4909 2.11769 67.1005 2.53714 67.594 3.12699C68.0874 3.71685 68.4058 4.42481 68.549 5.25087C68.6922 6.07694 68.6315 6.85508 68.3668 7.58531C68.1008 8.30744 67.6688 8.91248 67.0708 9.40041C66.4796 9.87883 65.788 10.187 64.9962 10.3249ZM64.7877 9.12225C65.3452 9.02515 65.8203 8.81308 66.2131 8.48603C66.6045 8.15088 66.8807 7.72734 67.0417 7.2154C67.2093 6.69396 67.2391 6.12143 67.131 5.49784C67.0229 4.87424 66.8029 4.34939 66.471 3.92329C66.1471 3.49578 65.7453 3.1945 65.2655 3.01943C64.7856 2.84436 64.267 2.80537 63.7095 2.90247C63.152 2.99957 62.6768 3.21164 62.284 3.53869C61.8912 3.86573 61.6103 4.28593 61.4413 4.79928C61.2803 5.31122 61.2539 5.87899 61.362 6.50258C61.4701 7.12618 61.6867 7.65578 62.012 8.09139C62.3439 8.51749 62.7504 8.82212 63.2317 9.00529C63.7115 9.18036 64.2302 9.21935 64.7877 9.12225Z" fill="white"/>
<path d="M86.9745 0.19513L86.218 5.60445C86.1281 6.24754 86.2268 6.75529 86.5143 7.12769C86.8098 7.50124 87.2581 7.73023 87.8591 7.81467C88.4682 7.90025 88.962 7.80363 89.3405 7.5248C89.7272 7.24711 89.9655 6.78672 90.0554 6.14362L90.8119 0.734305L92.2007 0.929435L91.4476 6.31433C91.3508 7.00627 91.1186 7.57127 90.7509 8.00933C90.3833 8.4474 89.9312 8.74909 89.3946 8.91441C88.8581 9.07974 88.2852 9.11961 87.6761 9.03402C87.067 8.94844 86.5272 8.75224 86.0567 8.44542C85.5943 8.13974 85.2505 7.72621 85.0253 7.20485C84.8001 6.68348 84.7359 6.07683 84.8326 5.3849L85.5857 0L86.9745 0.19513Z" fill="white"/>
<path d="M109.115 14.6243L108.736 10.6876L107.761 10.2444L106.348 13.3658L105.071 12.7849L108.604 4.98142L111.292 6.20427C111.89 6.47602 112.346 6.81009 112.662 7.20651C112.985 7.60632 113.168 8.02799 113.211 8.47151C113.26 8.91844 113.187 9.35897 112.991 9.79312C112.76 10.3021 112.401 10.6983 111.912 10.9816C111.434 11.2608 110.856 11.336 110.175 11.2072L110.638 15.3172L109.115 14.6243ZM108.224 9.22261L109.635 9.86461C110.113 10.082 110.526 10.1253 110.873 9.99445C111.228 9.86701 111.497 9.60119 111.68 9.19698C111.863 8.79277 111.886 8.42404 111.748 8.09078C111.615 7.75004 111.305 7.46927 110.819 7.24848L109.408 6.60648L108.224 9.22261Z" fill="white"/>
<path d="M140.029 30.4941C139.699 30.7783 139.321 30.9685 138.895 31.0647C138.47 31.161 138.016 31.1182 137.536 30.9364C137.061 30.7492 136.594 30.3877 136.134 29.8518L135.123 28.6743L132.493 30.9423L131.579 29.8769L138.059 24.2872L139.985 26.5302C140.413 27.0286 140.687 27.5243 140.807 28.0171C140.939 28.5108 140.931 28.9677 140.783 29.3879C140.64 29.8144 140.389 30.1831 140.029 30.4941ZM137.001 29.1039C137.349 29.5088 137.698 29.7333 138.05 29.7772C138.407 29.8157 138.754 29.6902 139.09 29.4006C139.798 28.7894 139.808 28.0819 139.118 27.2782L138.107 26.1006L135.99 27.9263L137.001 29.1039Z" fill="white"/>
<path d="M144.89 48.956L147.145 45.7106L146.689 44.7401L143.595 46.2009L142.998 44.9293L150.732 41.2774L151.99 43.9544C152.27 44.5493 152.402 45.1003 152.386 45.6074C152.374 46.1219 152.241 46.5619 151.987 46.9273C151.736 47.3001 151.395 47.5882 150.965 47.7913C150.46 48.0295 149.931 48.098 149.375 47.9967C148.831 47.8994 148.341 47.5809 147.906 47.0412L145.603 50.473L144.89 48.956ZM147.702 44.262L148.362 45.6674C148.586 46.1433 148.872 46.4442 149.221 46.5701C149.574 46.7034 149.951 46.6754 150.352 46.4863C150.752 46.2971 151.008 46.031 151.119 45.688C151.237 45.3414 151.182 44.9264 150.955 44.4431L150.294 43.0377L147.702 44.262Z" fill="white"/>
<path d="M150.984 67.5702C150.876 66.7804 150.958 66.0263 151.232 65.308C151.515 64.5968 151.958 64.0002 152.562 63.5183C153.176 63.0435 153.897 62.7487 154.726 62.6341C155.554 62.5195 156.324 62.6081 157.035 62.8998C157.746 63.1996 158.331 63.654 158.787 64.263C159.253 64.8791 159.54 65.582 159.648 66.3719C159.758 67.1699 159.672 67.9245 159.389 68.6357C159.115 69.354 158.676 69.95 158.07 70.4238C157.465 70.8975 156.748 71.1917 155.919 71.3063C155.091 71.4209 154.317 71.3329 153.598 71.0423C152.887 70.7506 152.299 70.2968 151.834 69.6807C151.377 69.0717 151.094 68.3682 150.984 67.5702ZM152.191 67.4034C152.268 67.9652 152.463 68.4486 152.775 68.8535C153.096 69.2572 153.508 69.5487 154.013 69.7278C154.527 69.9139 155.097 69.9637 155.723 69.8772C156.348 69.7907 156.879 69.5886 157.316 69.271C157.753 68.9616 158.068 68.5696 158.259 68.095C158.45 67.6205 158.507 67.1023 158.43 66.5404C158.353 65.9786 158.158 65.4952 157.845 65.0903C157.533 64.6854 157.124 64.3894 156.618 64.2021C156.113 64.023 155.548 63.9767 154.922 64.0632C154.297 64.1497 153.761 64.3483 153.315 64.6589C152.879 64.9765 152.561 65.3731 152.362 65.8488C152.17 66.3233 152.113 66.8415 152.191 67.4034Z" fill="white"/>
<path d="M159.778 92.9226L153.691 91.9519C152.938 91.8318 152.38 91.5054 152.016 90.973C151.65 90.4486 151.527 89.813 151.646 89.0662C151.764 88.3193 152.079 87.7494 152.59 87.3565C153.099 86.9716 153.731 86.8392 154.484 86.9594L154.262 88.3597C153.888 88.3084 153.577 88.3546 153.33 88.4983C153.082 88.6502 152.929 88.9047 152.873 89.2619C152.816 89.6191 152.882 89.9084 153.071 90.13C153.268 90.3529 153.549 90.4934 153.914 90.5516L160 91.5223L159.778 92.9226Z" fill="white"/>
<path d="M154.188 109.555L151.888 108.548L150.707 111.26L149.658 110.801L150.84 108.089L148.439 107.038L147.11 110.089L146.061 109.63L147.952 105.291L155.798 108.726L153.907 113.065L152.859 112.606L154.188 109.555Z" fill="white"/>
<path d="M143.534 123.677C144.179 124.211 144.635 124.839 144.902 125.561C145.164 126.289 145.225 127.028 145.087 127.777C144.949 128.537 144.627 129.225 144.121 129.84C143.541 130.543 142.853 131.023 142.056 131.281C141.26 131.549 140.444 131.546 139.608 131.269L140.682 129.967C141.17 130.084 141.625 130.061 142.047 129.898C142.468 129.735 142.843 129.454 143.172 129.054C143.533 128.617 143.756 128.146 143.842 127.642C143.928 127.137 143.868 126.635 143.663 126.135C143.453 125.641 143.105 125.193 142.618 124.79C142.131 124.387 141.626 124.128 141.103 124.015C140.574 123.908 140.067 123.942 139.583 124.116C139.105 124.296 138.686 124.605 138.326 125.042C137.997 125.442 137.792 125.864 137.712 126.31C137.632 126.755 137.696 127.207 137.902 127.667L136.829 128.969C136.401 128.198 136.243 127.396 136.356 126.562C136.463 125.734 136.807 124.969 137.387 124.265C137.898 123.644 138.508 123.194 139.215 122.917C139.929 122.644 140.668 122.568 141.431 122.687C142.188 122.813 142.889 123.143 143.534 123.677Z" fill="white"/>
<path d="M124.879 147.605L124.239 146.654L126.125 145.378L121.982 139.226L123.144 138.44L127.287 144.592L129.184 143.309L129.824 144.259L124.879 147.605Z" fill="white"/>
</g>
</svg>
